<?xml version="1.0" standalone="no"?><!DOCTYPE svg PUBLIC "-//W3C//DTD SVG 1.1//EN" "http://www.w3.org/Graphics/SVG/1.1/DTD/svg11.dtd"><svg t="1715224325319" class="icon" viewBox="0 0 1032 1024" version="1.1" xmlns="http://www.w3.org/2000/svg" p-id="1831" xmlns:xlink="http://www.w3.org/1999/xlink" width="1032" height="1024"><path d="M974.804992 608.596992c-6.950912 0-13.495296 1.736704-19.228672 4.793344l-0.188416-0.164864c-53.783552 26.057728-114.139136 40.681472-177.911808 40.681472-225.649664 0-408.576-182.926336-408.576-408.576 0-60.653568 13.228032-118.213632 36.939776-169.970688l-0.021504-0.014336c2.476032-5.276672 3.867648-11.163648 3.867648-17.378304 0-22.621184-18.337792-40.96-40.96-40.96-6.207488 0-12.087296 1.38752-17.359872 3.859456C155.305984 92.638208 15.36 280.836096 15.36 501.76c0 282.773504 229.229568 512.004096 511.996928 512.004096 225.846272 0 417.522688-146.233344 485.549056-349.176832 1.83808-4.655104 2.859008-9.721856 2.859008-15.030272C1015.764992 626.934784 997.4272 608.596992 974.804992 608.596992zM527.358976 961.537024c-253.927424 0-459.776-205.847552-459.776-459.776 0-185.863168 110.296064-345.949184 268.996608-418.424832 3.740672-1.708032 7.499776-3.385344 11.293696-4.995072-1.526784 3.923968-2.994176 7.876608-4.415488 11.851776-17.3312 48.478208-26.78272 100.702208-26.78272 155.138048 0 254.491648 206.307328 460.8 460.8 460.8 58.375168 0 114.207744-10.866688 165.603328-30.6688 4.043776-1.558528 8.064-3.165184 12.05248-4.83328-1.557504 3.943424-3.185664 7.849984-4.84864 11.739136C880.095232 846.509056 717.167616 961.537024 527.358976 961.537024z" fill="#060001" p-id="1832"></path></svg>